<svg width="81" height="81" viewBox="0 0 81 81" fill="none" xmlns="http://www.w3.org/2000/svg">
<path fill-rule="evenodd" clip-rule="evenodd" d="M60.005 40.23C71.0506 40.23 80.005 31.2757 80.005 20.23C80.005 9.1843 71.0506 0.22998 60.005 0.22998C48.9594 0.22998 40.005 9.1843 40.005 20.23C40.005 31.2757 48.9594 40.23 60.005 40.23ZM20.005 80.23C31.0507 80.23 40.005 71.2756 40.005 60.23C40.005 49.1844 31.0507 40.23 20.005 40.23C8.95932 40.23 0.00500488 49.1844 0.00500488 60.23C0.00500488 71.2756 8.95932 80.23 20.005 80.23Z" fill="#6A4C93"/>
<path fill-rule="evenodd" clip-rule="evenodd" d="M20.005 40.23C31.0507 40.23 40.005 31.2757 40.005 20.23C40.005 9.1843 31.0507 0.22998 20.005 0.22998C8.95932 0.22998 0.00500488 9.1843 0.00500488 20.23C0.00500488 31.2757 8.95932 40.23 20.005 40.23ZM60.005 80.23C71.0506 80.23 80.005 71.2756 80.005 60.23C80.005 49.1844 71.0506 40.23 60.005 40.23C48.9594 40.23 40.005 49.1844 40.005 60.23C40.005 71.2756 48.9594 80.23 60.005 80.23Z" fill="black"/>
</svg>
