<svg width="33" height="33" viewBox="0 0 33 33" fill="none" xmlns="http://www.w3.org/2000/svg">
<g clip-path="url(#clip0_1_197)">
<path d="M31.378 9.88228L27.603 13.6453C26.853 22.3823 19.478 29.1703 10.665 29.1703C8.85298 29.1703 7.35298 28.8823 6.21498 28.3203C5.30298 27.8573 4.92798 27.3703 4.82798 27.2203C4.65998 26.9653 4.61798 26.6483 4.71198 26.3593C4.80698 26.0693 5.02898 25.8383 5.31498 25.7323C5.33998 25.7203 8.28998 24.5953 10.203 22.4323C9.01598 21.5883 7.97398 20.5583 7.11498 19.3823C5.40298 17.0573 3.58998 13.0203 4.67798 6.99528C4.74698 6.63028 5.01098 6.33328 5.36498 6.22028C5.71998 6.10428 6.11098 6.19528 6.37798 6.45728C6.41498 6.50728 10.578 10.6073 15.665 11.9323V11.1703C15.675 9.56928 16.321 8.03728 17.46 6.91228C18.599 5.78728 20.139 5.16028 21.74 5.17028C23.857 5.20028 25.802 6.33928 26.865 8.17028H30.665C31.069 8.16928 31.434 8.41028 31.59 8.78228C31.737 9.15928 31.654 9.58728 31.378 9.88228Z" fill="black"/>
</g>
<defs>
<clipPath id="clip0_1_197">
<rect width="32" height="32" fill="white" transform="translate(0.664978 0.170166)"/>
</clipPath>
</defs>
</svg>
