<svg width="33" height="33" viewBox="0 0 33 33" fill="none" xmlns="http://www.w3.org/2000/svg">
<g clip-path="url(#clip0_1_201)">
<path d="M12.665 16.1702C12.665 13.9612 14.456 12.1702 16.665 12.1702C18.874 12.1702 20.665 13.9612 20.665 16.1702C20.665 18.3792 18.874 20.1702 16.665 20.1702C14.456 20.1702 12.665 18.3792 12.665 16.1702Z" fill="black"/>
<path d="M22.165 3.67017H11.165C7.29898 3.67017 4.16498 6.80417 4.16498 10.6702V21.6702C4.16498 25.5362 7.29898 28.6702 11.165 28.6702H22.165C26.031 28.6702 29.165 25.5362 29.165 21.6702V10.6702C29.165 6.80417 26.031 3.67017 22.165 3.67017ZM16.665 22.1702C13.351 22.1702 10.665 19.4842 10.665 16.1702C10.665 12.8562 13.351 10.1702 16.665 10.1702C19.979 10.1702 22.665 12.8562 22.665 16.1702C22.665 19.4842 19.979 22.1702 16.665 22.1702ZM23.165 11.1702C22.337 11.1702 21.665 10.4982 21.665 9.67017C21.665 8.84217 22.337 8.17017 23.165 8.17017C23.993 8.17017 24.665 8.84217 24.665 9.67017C24.665 10.4982 23.993 11.1702 23.165 11.1702Z" fill="black"/>
</g>
<defs>
<clipPath id="clip0_1_201">
<rect width="32" height="32" fill="white" transform="translate(0.664978 0.170166)"/>
</clipPath>
</defs>
</svg>
