<svg width="118" height="139" viewBox="0 0 118 139" fill="none" xmlns="http://www.w3.org/2000/svg">
<path d="M20.4437 46.4219L16.3053 57.7922M39.5645 42.2213L47.1422 44.9793M28.6521 21.51C29.5032 21.7037 30.6686 17.1508 30.9631 16.3417M3.22664 27.7088L14.5932 31.8459M20.0395 23.9547C19.3611 23.7078 18.3057 21.5114 18.2154 20.7155M38.9837 30.8499C41.1723 31.6464 41.9842 30.3222 43.979 30.0927M32.4997 48.6646C32.2856 49.6008 34.7893 53.7067 35.5284 54.4887M10.3511 42.3196C7.60813 41.3213 5.92444 43.3742 3.4263 43.6622M64.7207 5.48046C63.1705 4.68741 63.8825 3.87709 61.8323 4.37595C61.6641 4.41691 62.6372 4.74023 62.9131 4.61079C63.9635 4.12258 63.193 3.28345 62.805 2.87299M101.052 130.259C100.315 128.677 97.7257 124.566 95.3452 125.527C93.4323 126.301 95.2448 129.677 97.1423 127.879M34.9748 105.007C35.532 105.21 36.0941 105.466 36.6691 105.609C37.7227 105.872 38.7751 104.972 39.7366 104.698C42.5423 103.898 44.415 101.969 46.5617 100.162C49.4396 97.7399 50.7967 94.4848 52.0451 91.0549L53.3578 87.4484C53.7155 86.4655 53.588 85.4123 53.9321 84.467C54.1698 83.8139 54.5704 82.0144 53.9945 83.5969L50.3899 93.5003C49.7825 95.1692 49.8164 96.997 49.2741 98.6683C48.4722 101.143 48.6891 104.726 49.7855 107.078C50.2465 108.069 50.363 109.12 50.839 110.143C51.2933 111.117 51.959 111.957 52.708 112.68C54.1911 114.11 56.5898 114.66 58.5087 115.358M34.0523 105.436C34.9995 105.781 35.7276 105.982 36.3855 106.739C36.9556 107.398 37.1801 108.664 37.4128 109.524C38.3736 113.077 38.9775 116.228 38.4933 119.914C37.9811 123.819 36.9551 127.608 35.6017 131.327L34.0613 135.559C33.6447 136.704 34.2459 135.426 34.4881 135.047C35.5299 133.413 36.08 131.501 37.2852 129.897C38.6512 128.077 39.8355 125.916 41.466 124.328C43.8154 122.04 45.6183 119.361 48.3039 117.459C50.1769 116.131 51.5987 115.175 53.9969 115.489C54.8603 115.602 55.8743 115.421 56.7041 115.723L58.4059 116.342M96.4692 60.5831C99.9798 61.8609 100.041 67.6543 99.7123 70.7974C99.4515 73.2916 98.3279 75.6506 97.8859 78.1193C97.7612 78.8156 97.5511 79.6969 97.3127 80.3519C97.1858 80.7005 96.9421 81.9111 97.28 80.9827C98.1617 78.5602 99.54 76.4897 101.263 74.5862C103.02 72.6463 105.186 71.2028 107.282 69.6619C109.758 67.8419 112.177 68.2626 114.883 69.2477M98.1054 60.3944C99.4914 60.8989 100.996 61.9222 102.396 61.2696C103.406 60.7977 104.165 59.7947 104.893 58.9861C106.121 57.6227 107.221 56.4003 108.254 54.8693C109.242 53.406 109.916 51.7313 110.747 50.1757C111.439 48.8802 112.169 47.6149 112.672 46.2345L112.938 45.5034C112.511 46.6752 112.42 48.0159 112.168 49.2329C111.267 53.5736 109.872 58.8178 110.88 63.2773C111.103 64.2708 113.885 68.4321 114.96 68.966" stroke="#F2F2F2" stroke-width="5" stroke-miterlimit="10" stroke-linecap="round"/>
</svg>
