<svg width="79" height="109" viewBox="0 0 79 109" fill="none" xmlns="http://www.w3.org/2000/svg">
<path d="M33.0181 90.1485C29.3717 89.1715 29.3051 86.8895 27.1955 84.4079C20.71 76.7753 15.9662 67.3524 12.3996 58.7015C7.51744 46.8625 3.3253 34.1328 3.1742 21.9464C3.11488 16.9943 5.14863 9.55109 7.42411 5.2008C10.7472 -1.15055 14.1404 7.72202 16.0731 9.83626C23.7675 18.2504 26.5177 33.0505 27.2637 42.8081C27.5407 46.453 29.6786 49.4473 31.0798 44.2178C33.5062 35.1623 37.8183 29.3699 45.063 22.7484C48.8936 19.2475 70.8127 -0.435077 74.9487 12.2299C77.2542 19.3006 74.4559 25.8805 72.546 33.0081C68.5273 48.006 56.8958 59.992 47.5884 72.697C41.795 80.6019 35.7229 88.8555 28.622 95.9183C26.6588 97.8707 22.5339 106.075 20.1225 106.377" stroke="#F2F2F2" stroke-width="5" stroke-miterlimit="10" stroke-linecap="round"/>
</svg>
