<svg width="143" height="80" viewBox="0 0 143 80" fill="none" xmlns="http://www.w3.org/2000/svg">
<path d="M21.9468 2.99685C16.9656 2.11854 10.5073 8.08573 8.46666 12.3857C5.12279 19.429 3.92427 27.8732 3.1133 35.5764C2.28082 43.488 3.6983 53.6699 10.1179 59.1864C15.1618 63.5212 24.7476 66.3192 31.4029 66.0071C37.8626 65.7043 45.4966 61.6899 48.8451 56.2101C51.1522 52.4374 52.3296 46.3017 50.1346 42.3088C48.5545 39.4358 42.8824 37.8285 40.1533 39.5944C36.1102 42.207 32.3902 45.9875 30.9209 50.6867C28.6109 58.0748 29.1204 63.1494 34.9881 68.6001C42.5691 75.6436 56.0923 78.3459 65.886 76.2101C76.8454 73.8209 89.1718 67.353 95.9313 58.278C99.0245 54.125 101.028 49.4143 102.316 44.4201C103.056 41.5511 104.194 37.8555 102.97 34.9822C100.966 30.2819 95.0574 28.3018 90.6155 31.3965C86.4957 34.2657 84.9481 40.2032 85.4834 45.0223C85.9085 48.8483 89.7914 52.5 92.5984 54.8247C96.2207 57.8233 101.604 59.1583 106.151 59.9296C119.311 62.1598 130.969 50.76 139.629 42.3012" stroke="#F2F2F2" stroke-width="5" stroke-miterlimit="10" stroke-linecap="round"/>
</svg>
