<svg width="102" height="93" viewBox="0 0 102 93" fill="none" xmlns="http://www.w3.org/2000/svg">
<path d="M18.5947 40.9997C17.5201 41.3453 14.1583 32.8203 13.6259 31.43C12.6074 28.7703 13.2651 24.7739 15.1245 22.6258C16.587 20.9376 17.9852 20.2116 19.9764 19.2832C21.7844 18.44 22.9288 19.1952 24.64 20.0798C26.7386 21.1635 27.7532 23.931 29.2598 25.6404C29.5346 25.9503 30.5374 27.4953 30.8717 27.0503C32.0504 25.4822 31.9741 22.531 32.4322 20.6788C33.6734 15.6645 39.4933 -2.86848 47.0834 5.683C50.1302 9.11489 51.9757 13.6168 53.9033 17.7504L55.95 22.1397C55.9796 22.2031 56.12 21.5032 56.3103 21.2512C57.221 20.0431 58.2781 18.8528 59.2894 17.7303C63.528 13.0273 70.3757 10.91 75.9948 8.28974C78.9503 6.91159 80.2941 8.7499 81.5231 11.3854C83.809 16.2877 82.0955 23.5448 80.342 28.4163C79.8904 29.6673 79.0067 30.652 78.588 31.815C78.0361 33.3456 81.5719 30.5427 83.041 29.8577C86.2194 28.3755 90.7397 24.9889 94.2948 27.012C97.9384 29.0854 98.7917 35.1036 98.7015 38.7647C98.5996 42.9212 97.4123 46.0657 93.5691 48.1524C92.1372 48.9293 90.3354 49.9869 88.7448 50.402C87.6598 50.685 87.3402 50.3309 87.9517 51.6424C89.2145 54.3504 87.8754 57.6759 85.7701 59.6231C81.7223 63.3676 74.9605 64.3393 69.8018 63.2879C65.4978 62.4107 62.1856 60.0282 58.8358 57.3544C57.915 56.6197 57.4916 56.6771 56.8659 57.7323C55.4284 60.1581 54.2781 62.6365 52.7644 65.0481C46.8639 74.4474 39.9603 82.4078 30.5533 88.2531C26.4459 90.805 23.3502 90.3232 21.3606 86.0563C19.2369 81.5021 20.514 77.5799 22.4008 73.2641C22.8952 72.1332 23.6321 70.5285 24.8057 69.9812L20.8624 71.82C15.4218 74.357 9.26369 75.5823 5.45641 69.7885C2.68214 65.5664 1.45277 60.604 4.81953 56.3385C7.07412 53.4809 9.29193 52.3618 12.5682 50.834C12.7205 50.763 14.9325 49.8585 14.9183 49.7382C14.8287 48.9712 13.2899 46.885 12.9028 46.0548C11.3552 42.7359 13.2285 38.869 17.1193 38.9856" stroke="#F2F2F2" stroke-width="5" stroke-miterlimit="10" stroke-linecap="round"/>
</svg>
