<svg width="80" height="115" viewBox="0 0 80 115" fill="none" xmlns="http://www.w3.org/2000/svg">
<path d="M52.2967 5.05175C51.8053 6.21508 50.3474 6.71451 49.3749 7.52495C46.788 9.67643 44.4591 12.2704 42.1538 14.6564C35.3168 21.7235 28.0308 28.4282 21.1148 35.4479C14.5682 42.094 10.1064 49.3617 4.45831 56.4526C3.97139 57.0603 1.8763 59.2558 3.84817 58.6978C7.34436 57.7068 14.138 60.175 17.7158 60.8059C18.9438 61.0224 34.2758 62.8993 34.1169 64.3711C33.3257 71.7203 28.5591 79.4206 26.3487 86.5318C24.7404 91.7021 22.4972 96.7533 20.4018 101.767C19.1371 104.799 18.7603 108.335 16.7894 111.065C15.5376 112.803 17.2544 110.932 17.587 110.198C19.0876 106.876 21.7945 103.537 23.9248 100.52C32.0762 88.9765 43.1678 79.6234 52.5595 69.004C59.6901 60.9407 67.8536 53.3073 74.8589 45.6717C75.4323 45.0458 77.6918 43.3402 76.1292 44.0649C74.5591 44.7923 70.6003 44.4964 68.8846 44.2812C59.8253 43.1448 49.9879 45.218 40.9405 45.3672C39.3841 45.3944 32.4031 47.5479 34.7369 44.3099C38.1609 39.5644 39.3757 33.5561 42.0011 28.4108C44.8108 22.9051 46.3602 16.7323 49.456 11.4243C50.3163 9.95434 53.0656 2.99501 54.2574 2.70862" stroke="#F2F2F2" stroke-width="5" stroke-miterlimit="10" stroke-linecap="round"/>
</svg>
