<svg width="78" height="87" viewBox="0 0 78 87" fill="none" xmlns="http://www.w3.org/2000/svg">
<path d="M50.4984 8.01644C49.2503 7.77317 47.2776 13.809 46.9606 14.4887L17.1073 78.5094M11.0858 23.3374C18.7867 26.9284 26.7154 30.1942 33.8516 34.847C43.6852 41.2564 52.2501 48.9929 61.6303 55.9511C65.9159 59.1312 69.8556 62.149 74.6899 64.4032M31.1535 2.62481C30.4703 4.65311 31.5716 7.7265 31.827 9.73676C33.0022 18.9551 34.3999 28.1437 35.7874 37.333C37.4878 48.5959 37.6034 59.6891 38.6095 70.9669C38.9793 75.1215 38.5651 79.6089 39.1847 83.6206M3.4756 51.9335C5.43541 48.98 10.8381 47.28 13.8152 45.6373C25.2611 39.3207 36.9475 32.6374 49.2122 28.0101C55.7526 25.5431 62.6298 22.6306 69.4281 20.9922" stroke="#F2F2F2" stroke-width="5" stroke-miterlimit="10" stroke-linecap="round"/>
</svg>
