<svg width="25" height="28" viewBox="0 0 25 28" fill="none" xmlns="http://www.w3.org/2000/svg">
<path d="M22.665 0.170166H2.66498C1.55998 0.170166 0.664978 1.06517 0.664978 2.17017V20.1702C0.664978 21.2752 1.55998 22.1702 2.66498 22.1702H4.66498V26.1702C4.66498 26.5582 4.88898 26.9112 5.24098 27.0762C5.59198 27.2412 6.00698 27.1872 6.30498 26.9392L12.028 22.1702H17.303C17.771 22.1702 18.224 22.0062 18.584 21.7062L23.945 17.2372C24.402 16.8582 24.666 16.2952 24.665 15.7012V2.17017C24.665 1.06517 23.77 0.170166 22.665 0.170166ZM12.665 13.1702C12.665 13.7222 12.217 14.1702 11.665 14.1702C11.113 14.1702 10.665 13.7222 10.665 13.1702V7.17017C10.665 6.61817 11.113 6.17017 11.665 6.17017C12.217 6.17017 12.665 6.61817 12.665 7.17017V13.1702ZM18.665 13.1702C18.665 13.7222 18.217 14.1702 17.665 14.1702C17.113 14.1702 16.665 13.7222 16.665 13.1702V7.17017C16.665 6.61817 17.113 6.17017 17.665 6.17017C18.217 6.17017 18.665 6.61817 18.665 7.17017V13.1702Z" fill="black"/>
</svg>
