<svg width="106" height="69" viewBox="0 0 106 69" fill="none" xmlns="http://www.w3.org/2000/svg">
<path d="M19.4951 24.5803C18.7049 21.6313 17.9728 19.7994 19.8042 17.1294C21.5993 14.5137 24.7838 13.9534 27.6178 13.194C29.429 12.7087 30.8941 12.0915 32.2159 13.9062C33.652 15.8777 35.0752 17.306 35.7352 19.7691C36.0864 21.0799 35.7994 20.8742 36.1904 19.7486C37.138 17.0297 39.2686 14.3986 41.0989 12.2424C44.383 8.37155 48.9463 4.71591 53.9459 3.37627C55.3678 2.99529 60.1598 1.78478 60.9778 3.79454C61.6916 5.55062 63.5217 8.06464 62.2164 10.1402C61.5171 11.251 61.2824 12.6277 60.6242 13.7648C60.5104 13.962 59.8473 14.1997 59.8975 14.1127C60.2679 13.4741 61.188 12.9708 61.7568 12.5399C66.7748 8.74175 72.4659 6.24675 78.6678 5.06638C80.8901 4.64379 82.5616 5.39166 84.633 6.00132C85.8658 6.3636 86.318 7.43713 87.1965 7.82187C89.3951 8.78257 86.9397 13.1457 86.6805 14.4078C86.5758 14.9173 85.9342 16.2746 86.9432 16.1533C88.8346 15.925 90.6514 15.7084 92.5704 15.8226C95.7621 16.012 99.503 16.6122 101.732 19.1239C104.935 22.7309 102.889 27.2296 100.475 30.6914C97.7318 34.6255 94.3783 36.4288 89.8465 37.5054C88.8518 37.7419 88.1425 37.2777 87.2779 36.9141C87.0422 36.8147 87.3554 40.3056 87.3384 40.5824C86.926 47.4005 83.537 57.6333 77.17 61.1645C70.6182 64.7981 52.2876 71.2005 53.6694 57.4328C53.7777 56.3457 53.8945 54.7377 54.4378 53.798C54.9387 52.9319 54.0149 54.6578 53.4723 54.9781C48.3541 57.9925 42.362 60.9523 36.2667 60.9694C30.2421 60.9873 24.825 58.3888 19.9608 55.2074C16.3416 52.8394 17.9813 48.2527 19.2894 45.3337C19.6527 44.522 20.4526 42.9867 21.3084 42.541C22.2551 42.0482 22.7122 42.4868 21.6426 43.1161C19.0488 44.6445 16.0721 45.7599 13.1792 46.5351C10.15 47.3467 6.82902 48.7615 3.65842 48.114C-4.32258 46.4872 -11.7172 36.976 -4.88255 30.0128C-1.91654 26.9912 2.33728 23.6525 6.49269 22.539C8.91716 21.8894 12.0321 20.4357 14.5697 20.8344C16.5843 21.1508 20.1283 21.9943 21.531 23.5741" stroke="#F2F2F2" stroke-width="5" stroke-miterlimit="10" stroke-linecap="round"/>
</svg>
