<svg width="27" height="27" viewBox="0 0 27 27" fill="none" xmlns="http://www.w3.org/2000/svg">
<path d="M26.665 13.1702C26.657 19.7452 21.748 25.2822 15.221 26.0772C15.079 26.0942 14.937 26.0482 14.831 25.9532C14.724 25.8572 14.664 25.7202 14.665 25.5772V16.1702H17.665C17.942 16.1712 18.207 16.0562 18.397 15.8542C18.586 15.6522 18.683 15.3802 18.665 15.1042C18.619 14.5702 18.169 14.1632 17.634 14.1702H14.665V11.1702C14.665 10.0652 15.56 9.17017 16.665 9.17017H18.665C18.942 9.17117 19.207 9.05617 19.397 8.85417C19.586 8.65217 19.683 8.38017 19.665 8.10417C19.619 7.56917 19.168 7.16117 18.631 7.17017H16.665C14.456 7.17017 12.665 8.96117 12.665 11.1702V14.1702H9.66498C9.38798 14.1692 9.12298 14.2842 8.93298 14.4862C8.74398 14.6882 8.64698 14.9602 8.66498 15.2362C8.71098 15.7712 9.16198 16.1792 9.69898 16.1702H12.665V25.5802C12.666 25.7232 12.606 25.8592 12.5 25.9552C12.394 26.0502 12.252 26.0962 12.11 26.0802C5.39598 25.2622 0.426978 19.4402 0.673978 12.6812C0.923978 5.93117 6.39098 0.444168 13.146 0.181168C16.68 0.0441675 20.117 1.35117 22.667 3.80117C25.217 6.25117 26.661 9.63417 26.665 13.1702Z" fill="black"/>
</svg>
