<svg width="105" height="85" viewBox="0 0 105 85" fill="none" xmlns="http://www.w3.org/2000/svg">
<path d="M22.9713 32.8656C21.8439 32.9212 20.8031 23.8166 20.6486 22.3359C20.3532 19.5032 22.0228 15.8132 24.3748 14.2196C26.2245 12.9674 27.7629 12.6281 29.9265 12.2466C31.8912 11.9001 32.8011 12.9257 34.2251 14.2232C35.9717 15.813 36.2355 18.7488 37.2483 20.7899C37.4335 21.1604 38.0023 22.9123 38.4404 22.569C39.9848 21.3594 40.6748 18.489 41.5968 16.8185C44.0934 12.2963 54.5117 -4.09892 59.6299 6.12564C61.6847 10.2292 62.3021 15.0553 63.0941 19.547L63.9351 24.3164C63.9473 24.3853 64.264 23.7456 64.5131 23.5514C65.7055 22.6202 67.0345 21.7441 68.3019 20.9215C73.6133 17.4759 80.7757 17.203 86.8815 16.1264C90.093 15.5601 90.9152 17.6836 91.4202 20.5474C92.3595 25.8742 88.826 32.4406 85.8714 36.6922C85.1114 37.7838 84.003 38.5062 83.2975 39.5212C82.3684 40.8568 86.509 39.0646 88.1054 38.7831C91.5591 38.1741 96.8019 36.0728 99.7122 38.9471C102.695 41.8928 101.962 47.9269 100.927 51.4399C99.7528 55.4284 97.7921 58.1584 93.5397 59.1793C91.9556 59.5591 89.9414 60.1143 88.2976 60.1036C87.1763 60.0962 86.9592 59.6714 87.2105 61.0965C87.7294 64.0391 85.5752 66.9047 83.0377 68.2406C78.1587 70.8099 71.3757 69.9984 66.665 67.6477C62.7347 65.6864 60.152 62.5279 57.6083 59.0782C56.9091 58.1302 56.4852 58.0759 55.6078 58.9333C53.5914 60.9044 51.8388 63.0006 49.7526 64.9383C41.6204 72.4902 32.8917 78.3926 22.2923 81.6039C17.6645 83.0058 14.799 81.7392 13.9814 77.1027C13.1089 72.154 15.3575 68.696 18.2971 65.0157C19.0673 64.0513 20.1944 62.6919 21.4697 62.467L17.1848 63.2226C11.273 64.265 5.00762 63.8547 2.82962 57.2729C1.24264 52.4766 1.33952 47.3652 5.69555 44.1164C8.6129 41.9397 11.0448 41.4327 14.6049 40.805C14.7703 40.7758 17.141 40.4746 17.1585 40.3547C17.2705 39.5907 16.3241 37.1774 16.165 36.2753C15.5291 32.6689 18.3394 29.4185 22.0674 30.5382" stroke="#F2F2F2" stroke-width="5" stroke-miterlimit="10" stroke-linecap="round"/>
</svg>
