<svg width="114" height="141" viewBox="0 0 114 141" fill="none" xmlns="http://www.w3.org/2000/svg">
<path d="M15.2116 49.7472L12.0799 61.4349M33.8935 43.896L41.6827 45.9831M21.2175 24.2146C22.0822 24.3335 22.8465 19.6963 23.0693 18.8646M-3.57092 32.6058L8.11291 35.7365M12.8508 27.4007C12.1534 27.2138 10.9106 25.1178 10.7513 24.3328M32.3239 32.6185C34.5735 33.2213 35.2669 31.8314 37.2341 31.4288M27.4172 50.9305C27.2855 51.8819 30.1375 55.754 30.942 56.4685M4.79984 46.5401C1.9803 45.7846 0.481943 47.9765 -1.9816 48.4811M55.7518 5.10252C54.1384 4.4476 54.7771 3.57831 52.7781 4.25395C52.6142 4.30941 53.6118 4.54669 53.8753 4.3937C54.8791 3.8158 54.0384 3.04702 53.6161 2.67194M102.82 126.239C101.948 124.728 99.0101 120.858 96.7225 122.023C94.8843 122.961 96.9842 126.166 98.7177 124.209M34.7934 106.843C35.3662 106.996 35.9485 107.203 36.5337 107.295C37.6062 107.465 38.5761 106.476 39.5102 106.12C42.2355 105.079 43.9329 102.994 45.9139 101.006C48.5698 98.3427 49.6381 94.9817 50.5828 91.4561L51.5761 87.7489C51.8468 86.7385 51.628 85.7005 51.8884 84.7288C52.0683 84.0575 52.3105 82.2299 51.8747 83.8565L49.147 94.0364C48.6873 95.7519 48.8804 97.5698 48.4858 99.282C47.9027 101.817 48.431 105.367 49.7283 107.616C50.2739 108.562 50.4815 109.599 51.0449 110.576C51.5823 111.507 52.3187 112.286 53.1278 112.941C54.73 114.237 57.1675 114.575 59.1399 115.104M33.9118 107.351C34.8855 107.612 35.6283 107.749 36.3497 108.445C36.975 109.052 37.309 110.293 37.6158 111.13C38.8826 114.586 39.7588 117.672 39.5978 121.387C39.4278 125.321 38.736 129.186 37.7118 133.008L36.5461 137.358C36.2309 138.535 36.7184 137.21 36.9267 136.811C37.8221 135.092 38.2035 133.139 39.2643 131.437C40.4665 129.504 41.4579 127.249 42.9438 125.525C45.0848 123.04 46.6474 120.214 49.157 118.085C50.9071 116.6 52.2402 115.523 54.6566 115.627C55.5266 115.665 56.5211 115.396 57.374 115.624L59.1233 116.093M92.182 57.2285C95.7907 58.1954 96.3566 63.9614 96.303 67.1212C96.2605 69.6286 95.3468 72.0765 95.1217 74.5744C95.0582 75.2789 94.9257 76.1752 94.7453 76.8484C94.6493 77.2068 94.512 78.4341 94.7677 77.4798C95.4349 74.9896 96.6275 72.8069 98.1779 70.7604C99.7597 68.6748 101.791 67.048 103.745 65.3303C106.053 63.3014 108.499 63.5097 111.281 64.2551M93.7955 56.8978C95.2203 57.2796 96.8085 58.1679 98.1459 57.3958C99.1112 56.8376 99.7797 55.7723 100.435 54.9033C101.539 53.4381 102.529 52.1245 103.424 50.5092C104.281 48.9654 104.806 47.2383 105.498 45.6163C106.074 44.2654 106.692 42.9412 107.072 41.5222L107.274 40.7707C106.951 41.9753 106.977 43.3188 106.832 44.5532C106.313 48.9559 105.38 54.3017 106.773 58.6565C107.082 59.6266 110.216 63.5296 111.333 63.9678" stroke="#F2F2F2" stroke-width="5" stroke-miterlimit="10" stroke-linecap="round"/>
</svg>
