<svg width="136" height="101" viewBox="0 0 136 101" fill="none" xmlns="http://www.w3.org/2000/svg">
<path d="M2.94508 79.5974C3.30686 80.368 4.50314 80.9689 5.17147 81.4192C7.49714 82.9857 9.64731 84.7896 11.9939 86.3298C16.804 89.4874 21.6898 92.5523 26.457 95.7701C27.2444 96.3015 29.3064 98.1435 30.3684 98.1002C30.7625 98.0836 30.7685 97.6306 30.8772 97.3292C31.7109 95.0198 32.3887 92.72 33.3561 90.442C38.9915 77.164 44.4233 63.5006 51.5833 50.9632C52.6872 49.0286 53.8949 47.149 55.063 45.253C55.2399 44.9665 55.8804 43.7948 56.2658 43.6915C56.4667 43.6377 57.22 44.0881 57.3839 44.1591C59.1161 44.9052 60.8289 45.672 62.4584 46.634C69.9569 51.058 77.1241 56.1774 84.4284 60.9195C89.9433 64.5012 95.4431 68.0921 100.681 72.0782C101.464 72.6729 102.927 74.5947 103.119 72.7812C103.415 70.0019 104.583 67.1961 105.301 64.5138C107.031 58.0559 108.425 51.5134 110.105 45.0439C112.493 35.8518 115.312 26.6961 119.58 18.2042C120.246 16.8776 121.491 15.3585 121.785 13.8967M108.558 18.502C108.558 18.502 109.811 17.2004 110.137 16.8708C113.335 13.6265 117.211 11.0434 120.784 8.25148C122.81 6.6681 124.969 5.22003 126.888 3.50479C127.499 2.95917 128.066 2.01112 128.36 3.11035C128.873 5.02578 129.043 6.9887 129.396 8.93789C130.307 13.9704 131.349 19.0251 131.829 24.1226C132.146 27.4924 132.969 30.9325 132.777 34.3094" stroke="#F2F2F2" stroke-width="5" stroke-miterlimit="10" stroke-linecap="round"/>
</svg>
