<svg width="25" height="28" viewBox="0 0 25 28" fill="none" xmlns="http://www.w3.org/2000/svg">
<path d="M22.095 0.0200195H2.095C0.990001 0.0200195 0.0950012 0.91502 0.0950012 2.02002V20.02C0.0950012 21.125 0.990001 22.02 2.095 22.02H4.095V26.02C4.095 26.408 4.319 26.761 4.671 26.926C5.022 27.091 5.437 27.037 5.735 26.789L11.458 22.02H16.733C17.201 22.02 17.654 21.856 18.014 21.556L23.375 17.087C23.832 16.708 24.096 16.145 24.095 15.551V2.02002C24.095 0.91502 23.2 0.0200195 22.095 0.0200195ZM12.095 13.02C12.095 13.572 11.647 14.02 11.095 14.02C10.543 14.02 10.095 13.572 10.095 13.02V7.02002C10.095 6.46802 10.543 6.02002 11.095 6.02002C11.647 6.02002 12.095 6.46802 12.095 7.02002V13.02ZM18.095 13.02C18.095 13.572 17.647 14.02 17.095 14.02C16.543 14.02 16.095 13.572 16.095 13.02V7.02002C16.095 6.46802 16.543 6.02002 17.095 6.02002C17.647 6.02002 18.095 6.46802 18.095 7.02002V13.02Z" fill="white"/>
</svg>
