<svg width="33" height="33" viewBox="0 0 33 33" fill="none" xmlns="http://www.w3.org/2000/svg">
<g clip-path="url(#clip0_1_108)">
<path d="M30.808 9.73214L27.033 13.4951C26.283 22.2321 18.908 29.0201 10.095 29.0201C8.283 29.0201 6.78301 28.7321 5.64501 28.1701C4.73301 27.7071 4.35801 27.2201 4.25801 27.0701C4.09001 26.8151 4.048 26.4981 4.142 26.2091C4.237 25.9191 4.45901 25.6881 4.74501 25.5821C4.77001 25.5701 7.72001 24.4451 9.63301 22.2821C8.44601 21.4381 7.404 20.4081 6.545 19.2321C4.833 16.9071 3.02 12.8701 4.10801 6.84514C4.17701 6.48014 4.441 6.18314 4.795 6.07014C5.15 5.95414 5.541 6.04514 5.808 6.30714C5.845 6.35714 10.008 10.4571 15.095 11.7821V11.0201C15.105 9.41914 15.751 7.88714 16.89 6.76214C18.029 5.63714 19.569 5.01014 21.17 5.02014C23.287 5.05014 25.232 6.18914 26.295 8.02014H30.095C30.499 8.01914 30.864 8.26014 31.02 8.63214C31.167 9.00914 31.084 9.43714 30.808 9.73214Z" fill="white"/>
</g>
<defs>
<clipPath id="clip0_1_108">
<rect width="32" height="32" fill="white" transform="translate(0.0950012 0.0200195)"/>
</clipPath>
</defs>
</svg>
