<svg width="33" height="33" viewBox="0 0 33 33" fill="none" xmlns="http://www.w3.org/2000/svg">
<g clip-path="url(#clip0_1_112)">
<path d="M12.095 16.02C12.095 13.811 13.886 12.02 16.095 12.02C18.304 12.02 20.095 13.811 20.095 16.02C20.095 18.229 18.304 20.02 16.095 20.02C13.886 20.02 12.095 18.229 12.095 16.02Z" fill="white"/>
<path d="M21.595 3.52002H10.595C6.729 3.52002 3.595 6.65402 3.595 10.52V21.52C3.595 25.386 6.729 28.52 10.595 28.52H21.595C25.461 28.52 28.595 25.386 28.595 21.52V10.52C28.595 6.65402 25.461 3.52002 21.595 3.52002ZM16.095 22.02C12.781 22.02 10.095 19.334 10.095 16.02C10.095 12.706 12.781 10.02 16.095 10.02C19.409 10.02 22.095 12.706 22.095 16.02C22.095 19.334 19.409 22.02 16.095 22.02ZM22.595 11.02C21.767 11.02 21.095 10.348 21.095 9.52002C21.095 8.69202 21.767 8.02002 22.595 8.02002C23.423 8.02002 24.095 8.69202 24.095 9.52002C24.095 10.348 23.423 11.02 22.595 11.02Z" fill="white"/>
</g>
<defs>
<clipPath id="clip0_1_112">
<rect width="32" height="32" fill="white" transform="translate(0.0950012 0.0200195)"/>
</clipPath>
</defs>
</svg>
