<svg width="27" height="26" viewBox="0 0 27 26" fill="none" xmlns="http://www.w3.org/2000/svg">
<path d="M26.095 13.02C26.087 19.595 21.178 25.132 14.651 25.927C14.509 25.944 14.367 25.898 14.261 25.803C14.154 25.707 14.094 25.57 14.095 25.427V16.02H17.095C17.372 16.021 17.637 15.906 17.827 15.704C18.016 15.502 18.113 15.23 18.095 14.954C18.049 14.42 17.599 14.013 17.064 14.02H14.095V11.02C14.095 9.91502 14.99 9.02002 16.095 9.02002H18.095C18.372 9.02102 18.637 8.90602 18.827 8.70402C19.016 8.50202 19.113 8.23002 19.095 7.95402C19.049 7.41902 18.598 7.01102 18.061 7.02002H16.095C13.886 7.02002 12.095 8.81102 12.095 11.02V14.02H9.095C8.818 14.019 8.553 14.134 8.363 14.336C8.174 14.538 8.077 14.81 8.095 15.086C8.141 15.621 8.592 16.029 9.129 16.02H12.095V25.43C12.096 25.573 12.036 25.709 11.93 25.805C11.824 25.9 11.682 25.946 11.54 25.93C4.826 25.112 -0.142999 19.29 0.104001 12.531C0.354001 5.78102 5.821 0.294021 12.576 0.031021C16.11 -0.105979 19.547 1.20102 22.097 3.65102C24.647 6.10102 26.091 9.48402 26.095 13.02Z" fill="white"/>
</svg>
